<?xml version="1.0" encoding="UTF-8"?>
<mxfile host="app.diagrams.net" modified="2023-08-26T21:56:24.395Z" agent="Mozilla/5.0 (Windows NT 10.0; Win64; x64) AppleWebKit/537.36 (KHTML, like Gecko) Chrome/116.0.0.0 Safari/537.36" etag="Vzyl1p8PQFcnXWbQn-Gl" version="21.6.9" type="google">
  <diagram name="PÃ¡gina-1" id="0gTS_xppo8G07KGljCVg">
    <mxGraphModel dx="926" dy="509" grid="1" gridSize="10" guides="1" tooltips="1" connect="1" arrows="1" fold="1" page="1" pageScale="1" pageWidth="1169" pageHeight="827" math="0" shadow="0">
      <root>
        <mxCell id="0" />
        <mxCell id="1" parent="0" />
        <mxCell id="CyJpZy0ku7KnmYNyaIBQ-2" value="" style="shape=table;startSize=0;container=1;collapsible=0;childLayout=tableLayout;" parent="1" vertex="1">
          <mxGeometry x="630" y="20" width="708" height="1170" as="geometry" />
        </mxCell>
        <mxCell id="CyJpZy0ku7KnmYNyaIBQ-67" value="" style="shape=tableRow;horizontal=0;startSize=0;swimlaneHead=0;swimlaneBody=0;strokeColor=inherit;top=0;left=0;bottom=0;right=0;collapsible=0;dropTarget=0;fillColor=none;points=[[0,0.5],[1,0.5]];portConstraint=eastwest;" parent="CyJpZy0ku7KnmYNyaIBQ-2" vertex="1">
          <mxGeometry width="708" height="130" as="geometry" />
        </mxCell>
        <mxCell id="CyJpZy0ku7KnmYNyaIBQ-68" value="caso de uso" style="shape=partialRectangle;html=1;whiteSpace=wrap;connectable=0;strokeColor=inherit;overflow=hidden;fillColor=none;top=0;left=0;bottom=0;right=0;pointerEvents=1;" parent="CyJpZy0ku7KnmYNyaIBQ-67" vertex="1">
          <mxGeometry width="118" height="130" as="geometry">
            <mxRectangle width="118" height="130" as="alternateBounds" />
          </mxGeometry>
        </mxCell>
        <mxCell id="CyJpZy0ku7KnmYNyaIBQ-69" value="login" style="shape=partialRectangle;html=1;whiteSpace=wrap;connectable=0;strokeColor=inherit;overflow=hidden;fillColor=none;top=0;left=0;bottom=0;right=0;pointerEvents=1;" parent="CyJpZy0ku7KnmYNyaIBQ-67" vertex="1">
          <mxGeometry x="118" width="118" height="130" as="geometry">
            <mxRectangle width="118" height="130" as="alternateBounds" />
          </mxGeometry>
        </mxCell>
        <mxCell id="CyJpZy0ku7KnmYNyaIBQ-70" value="control de deposito" style="shape=partialRectangle;html=1;whiteSpace=wrap;connectable=0;strokeColor=inherit;overflow=hidden;fillColor=none;top=0;left=0;bottom=0;right=0;pointerEvents=1;" parent="CyJpZy0ku7KnmYNyaIBQ-67" vertex="1">
          <mxGeometry x="236" width="118" height="130" as="geometry">
            <mxRectangle width="118" height="130" as="alternateBounds" />
          </mxGeometry>
        </mxCell>
        <mxCell id="CyJpZy0ku7KnmYNyaIBQ-71" value="generar reporte" style="shape=partialRectangle;html=1;whiteSpace=wrap;connectable=0;strokeColor=inherit;overflow=hidden;fillColor=none;top=0;left=0;bottom=0;right=0;pointerEvents=1;" parent="CyJpZy0ku7KnmYNyaIBQ-67" vertex="1">
          <mxGeometry x="354" width="118" height="130" as="geometry">
            <mxRectangle width="118" height="130" as="alternateBounds" />
          </mxGeometry>
        </mxCell>
        <mxCell id="CyJpZy0ku7KnmYNyaIBQ-72" value="Ver espacios vacios" style="shape=partialRectangle;html=1;whiteSpace=wrap;connectable=0;strokeColor=inherit;overflow=hidden;fillColor=none;top=0;left=0;bottom=0;right=0;pointerEvents=1;" parent="CyJpZy0ku7KnmYNyaIBQ-67" vertex="1">
          <mxGeometry x="472" width="118" height="130" as="geometry">
            <mxRectangle width="118" height="130" as="alternateBounds" />
          </mxGeometry>
        </mxCell>
        <mxCell id="CyJpZy0ku7KnmYNyaIBQ-73" value="Ver stock" style="shape=partialRectangle;html=1;whiteSpace=wrap;connectable=0;strokeColor=inherit;overflow=hidden;fillColor=none;top=0;left=0;bottom=0;right=0;pointerEvents=1;" parent="CyJpZy0ku7KnmYNyaIBQ-67" vertex="1">
          <mxGeometry x="590" width="118" height="130" as="geometry">
            <mxRectangle width="118" height="130" as="alternateBounds" />
          </mxGeometry>
        </mxCell>
        <mxCell id="CyJpZy0ku7KnmYNyaIBQ-11" value="" style="shape=tableRow;horizontal=0;startSize=0;swimlaneHead=0;swimlaneBody=0;strokeColor=inherit;top=0;left=0;bottom=0;right=0;collapsible=0;dropTarget=0;fillColor=none;points=[[0,0.5],[1,0.5]];portConstraint=eastwest;" parent="CyJpZy0ku7KnmYNyaIBQ-2" vertex="1">
          <mxGeometry y="130" width="708" height="130" as="geometry" />
        </mxCell>
        <mxCell id="CyJpZy0ku7KnmYNyaIBQ-12" value="actores" style="shape=partialRectangle;html=1;whiteSpace=wrap;connectable=0;strokeColor=inherit;overflow=hidden;fillColor=none;top=0;left=0;bottom=0;right=0;pointerEvents=1;" parent="CyJpZy0ku7KnmYNyaIBQ-11" vertex="1">
          <mxGeometry width="118" height="130" as="geometry">
            <mxRectangle width="118" height="130" as="alternateBounds" />
          </mxGeometry>
        </mxCell>
        <mxCell id="CyJpZy0ku7KnmYNyaIBQ-13" value="Usuario, db" style="shape=partialRectangle;html=1;whiteSpace=wrap;connectable=0;strokeColor=inherit;overflow=hidden;fillColor=none;top=0;left=0;bottom=0;right=0;pointerEvents=1;" parent="CyJpZy0ku7KnmYNyaIBQ-11" vertex="1">
          <mxGeometry x="118" width="118" height="130" as="geometry">
            <mxRectangle width="118" height="130" as="alternateBounds" />
          </mxGeometry>
        </mxCell>
        <mxCell id="CyJpZy0ku7KnmYNyaIBQ-14" value="Usuario, db" style="shape=partialRectangle;html=1;whiteSpace=wrap;connectable=0;strokeColor=inherit;overflow=hidden;fillColor=none;top=0;left=0;bottom=0;right=0;pointerEvents=1;" parent="CyJpZy0ku7KnmYNyaIBQ-11" vertex="1">
          <mxGeometry x="236" width="118" height="130" as="geometry">
            <mxRectangle width="118" height="130" as="alternateBounds" />
          </mxGeometry>
        </mxCell>
        <mxCell id="CyJpZy0ku7KnmYNyaIBQ-15" value="usuario, db" style="shape=partialRectangle;html=1;whiteSpace=wrap;connectable=0;strokeColor=inherit;overflow=hidden;fillColor=none;top=0;left=0;bottom=0;right=0;pointerEvents=1;" parent="CyJpZy0ku7KnmYNyaIBQ-11" vertex="1">
          <mxGeometry x="354" width="118" height="130" as="geometry">
            <mxRectangle width="118" height="130" as="alternateBounds" />
          </mxGeometry>
        </mxCell>
        <mxCell id="CyJpZy0ku7KnmYNyaIBQ-16" value="usuario, db" style="shape=partialRectangle;html=1;whiteSpace=wrap;connectable=0;strokeColor=inherit;overflow=hidden;fillColor=none;top=0;left=0;bottom=0;right=0;pointerEvents=1;" parent="CyJpZy0ku7KnmYNyaIBQ-11" vertex="1">
          <mxGeometry x="472" width="118" height="130" as="geometry">
            <mxRectangle width="118" height="130" as="alternateBounds" />
          </mxGeometry>
        </mxCell>
        <mxCell id="CyJpZy0ku7KnmYNyaIBQ-17" value="usuario, db" style="shape=partialRectangle;html=1;whiteSpace=wrap;connectable=0;strokeColor=inherit;overflow=hidden;fillColor=none;top=0;left=0;bottom=0;right=0;pointerEvents=1;" parent="CyJpZy0ku7KnmYNyaIBQ-11" vertex="1">
          <mxGeometry x="590" width="118" height="130" as="geometry">
            <mxRectangle width="118" height="130" as="alternateBounds" />
          </mxGeometry>
        </mxCell>
        <mxCell id="CyJpZy0ku7KnmYNyaIBQ-19" style="shape=tableRow;horizontal=0;startSize=0;swimlaneHead=0;swimlaneBody=0;strokeColor=inherit;top=0;left=0;bottom=0;right=0;collapsible=0;dropTarget=0;fillColor=none;points=[[0,0.5],[1,0.5]];portConstraint=eastwest;" parent="CyJpZy0ku7KnmYNyaIBQ-2" vertex="1">
          <mxGeometry y="260" width="708" height="128" as="geometry" />
        </mxCell>
        <mxCell id="CyJpZy0ku7KnmYNyaIBQ-20" value="tipo" style="shape=partialRectangle;html=1;whiteSpace=wrap;connectable=0;strokeColor=inherit;overflow=hidden;fillColor=none;top=0;left=0;bottom=0;right=0;pointerEvents=1;" parent="CyJpZy0ku7KnmYNyaIBQ-19" vertex="1">
          <mxGeometry width="118" height="128" as="geometry">
            <mxRectangle width="118" height="128" as="alternateBounds" />
          </mxGeometry>
        </mxCell>
        <mxCell id="CyJpZy0ku7KnmYNyaIBQ-21" value="primario" style="shape=partialRectangle;html=1;whiteSpace=wrap;connectable=0;strokeColor=inherit;overflow=hidden;fillColor=none;top=0;left=0;bottom=0;right=0;pointerEvents=1;" parent="CyJpZy0ku7KnmYNyaIBQ-19" vertex="1">
          <mxGeometry x="118" width="118" height="128" as="geometry">
            <mxRectangle width="118" height="128" as="alternateBounds" />
          </mxGeometry>
        </mxCell>
        <mxCell id="CyJpZy0ku7KnmYNyaIBQ-22" value="primario" style="shape=partialRectangle;html=1;whiteSpace=wrap;connectable=0;strokeColor=inherit;overflow=hidden;fillColor=none;top=0;left=0;bottom=0;right=0;pointerEvents=1;" parent="CyJpZy0ku7KnmYNyaIBQ-19" vertex="1">
          <mxGeometry x="236" width="118" height="128" as="geometry">
            <mxRectangle width="118" height="128" as="alternateBounds" />
          </mxGeometry>
        </mxCell>
        <mxCell id="CyJpZy0ku7KnmYNyaIBQ-23" value="primario" style="shape=partialRectangle;html=1;whiteSpace=wrap;connectable=0;strokeColor=inherit;overflow=hidden;fillColor=none;top=0;left=0;bottom=0;right=0;pointerEvents=1;" parent="CyJpZy0ku7KnmYNyaIBQ-19" vertex="1">
          <mxGeometry x="354" width="118" height="128" as="geometry">
            <mxRectangle width="118" height="128" as="alternateBounds" />
          </mxGeometry>
        </mxCell>
        <mxCell id="CyJpZy0ku7KnmYNyaIBQ-24" value="primario" style="shape=partialRectangle;html=1;whiteSpace=wrap;connectable=0;strokeColor=inherit;overflow=hidden;fillColor=none;top=0;left=0;bottom=0;right=0;pointerEvents=1;" parent="CyJpZy0ku7KnmYNyaIBQ-19" vertex="1">
          <mxGeometry x="472" width="118" height="128" as="geometry">
            <mxRectangle width="118" height="128" as="alternateBounds" />
          </mxGeometry>
        </mxCell>
        <mxCell id="CyJpZy0ku7KnmYNyaIBQ-25" value="primario" style="shape=partialRectangle;html=1;whiteSpace=wrap;connectable=0;strokeColor=inherit;overflow=hidden;fillColor=none;top=0;left=0;bottom=0;right=0;pointerEvents=1;" parent="CyJpZy0ku7KnmYNyaIBQ-19" vertex="1">
          <mxGeometry x="590" width="118" height="128" as="geometry">
            <mxRectangle width="118" height="128" as="alternateBounds" />
          </mxGeometry>
        </mxCell>
        <mxCell id="CyJpZy0ku7KnmYNyaIBQ-27" style="shape=tableRow;horizontal=0;startSize=0;swimlaneHead=0;swimlaneBody=0;strokeColor=inherit;top=0;left=0;bottom=0;right=0;collapsible=0;dropTarget=0;fillColor=none;points=[[0,0.5],[1,0.5]];portConstraint=eastwest;" parent="CyJpZy0ku7KnmYNyaIBQ-2" vertex="1">
          <mxGeometry y="388" width="708" height="127" as="geometry" />
        </mxCell>
        <mxCell id="CyJpZy0ku7KnmYNyaIBQ-28" value="proposito" style="shape=partialRectangle;html=1;whiteSpace=wrap;connectable=0;strokeColor=inherit;overflow=hidden;fillColor=none;top=0;left=0;bottom=0;right=0;pointerEvents=1;" parent="CyJpZy0ku7KnmYNyaIBQ-27" vertex="1">
          <mxGeometry width="118" height="127" as="geometry">
            <mxRectangle width="118" height="127" as="alternateBounds" />
          </mxGeometry>
        </mxCell>
        <mxCell id="CyJpZy0ku7KnmYNyaIBQ-29" value="Permitir el ingreso de un usuario al sistema a travÃ©s de nombre y contraseÃ±a&amp;nbsp;" style="shape=partialRectangle;html=1;whiteSpace=wrap;connectable=0;strokeColor=inherit;overflow=hidden;fillColor=none;top=0;left=0;bottom=0;right=0;pointerEvents=1;" parent="CyJpZy0ku7KnmYNyaIBQ-27" vertex="1">
          <mxGeometry x="118" width="118" height="127" as="geometry">
            <mxRectangle width="118" height="127" as="alternateBounds" />
          </mxGeometry>
        </mxCell>
        <mxCell id="CyJpZy0ku7KnmYNyaIBQ-30" value="permite realizar transacciones de ingreso o egreso para tener registro del deposito" style="shape=partialRectangle;html=1;whiteSpace=wrap;connectable=0;strokeColor=inherit;overflow=hidden;fillColor=none;top=0;left=0;bottom=0;right=0;pointerEvents=1;" parent="CyJpZy0ku7KnmYNyaIBQ-27" vertex="1">
          <mxGeometry x="236" width="118" height="127" as="geometry">
            <mxRectangle width="118" height="127" as="alternateBounds" />
          </mxGeometry>
        </mxCell>
        <mxCell id="CyJpZy0ku7KnmYNyaIBQ-31" value="Mostrar las transacciones realizadas en el deposito (todas o en una franja de tiempo)" style="shape=partialRectangle;html=1;whiteSpace=wrap;connectable=0;strokeColor=inherit;overflow=hidden;fillColor=none;top=0;left=0;bottom=0;right=0;pointerEvents=1;" parent="CyJpZy0ku7KnmYNyaIBQ-27" vertex="1">
          <mxGeometry x="354" width="118" height="127" as="geometry">
            <mxRectangle width="118" height="127" as="alternateBounds" />
          </mxGeometry>
        </mxCell>
        <mxCell id="CyJpZy0ku7KnmYNyaIBQ-32" value="Mostrar las ubicaciones de palets&amp;nbsp; vacios" style="shape=partialRectangle;html=1;whiteSpace=wrap;connectable=0;strokeColor=inherit;overflow=hidden;fillColor=none;top=0;left=0;bottom=0;right=0;pointerEvents=1;" parent="CyJpZy0ku7KnmYNyaIBQ-27" vertex="1">
          <mxGeometry x="472" width="118" height="127" as="geometry">
            <mxRectangle width="118" height="127" as="alternateBounds" />
          </mxGeometry>
        </mxCell>
        <mxCell id="CyJpZy0ku7KnmYNyaIBQ-33" value="Mostrar todos los datos de los palets que se encuentren ocupados" style="shape=partialRectangle;html=1;whiteSpace=wrap;connectable=0;strokeColor=inherit;overflow=hidden;fillColor=none;top=0;left=0;bottom=0;right=0;pointerEvents=1;" parent="CyJpZy0ku7KnmYNyaIBQ-27" vertex="1">
          <mxGeometry x="590" width="118" height="127" as="geometry">
            <mxRectangle width="118" height="127" as="alternateBounds" />
          </mxGeometry>
        </mxCell>
        <mxCell id="CyJpZy0ku7KnmYNyaIBQ-35" style="shape=tableRow;horizontal=0;startSize=0;swimlaneHead=0;swimlaneBody=0;strokeColor=inherit;top=0;left=0;bottom=0;right=0;collapsible=0;dropTarget=0;fillColor=none;points=[[0,0.5],[1,0.5]];portConstraint=eastwest;" parent="CyJpZy0ku7KnmYNyaIBQ-2" vertex="1">
          <mxGeometry y="515" width="708" height="130" as="geometry" />
        </mxCell>
        <mxCell id="CyJpZy0ku7KnmYNyaIBQ-36" value="resumen" style="shape=partialRectangle;html=1;whiteSpace=wrap;connectable=0;strokeColor=inherit;overflow=hidden;fillColor=none;top=0;left=0;bottom=0;right=0;pointerEvents=1;" parent="CyJpZy0ku7KnmYNyaIBQ-35" vertex="1">
          <mxGeometry width="118" height="130" as="geometry">
            <mxRectangle width="118" height="130" as="alternateBounds" />
          </mxGeometry>
        </mxCell>
        <mxCell id="CyJpZy0ku7KnmYNyaIBQ-37" value="Este caso de uso es utilizado por el usuario para poder ingresar al sistema" style="shape=partialRectangle;html=1;whiteSpace=wrap;connectable=0;strokeColor=inherit;overflow=hidden;fillColor=none;top=0;left=0;bottom=0;right=0;pointerEvents=1;" parent="CyJpZy0ku7KnmYNyaIBQ-35" vertex="1">
          <mxGeometry x="118" width="118" height="130" as="geometry">
            <mxRectangle width="118" height="130" as="alternateBounds" />
          </mxGeometry>
        </mxCell>
        <mxCell id="CyJpZy0ku7KnmYNyaIBQ-38" value="&lt;font style=&quot;font-size: 11px;&quot;&gt;Es llamado por el usuario para hacer un ingreso de productos o un egreso. Donde a travÃ©s de estos se muestra el estado del deposito (espacios ocupados y stock y su ubicaciÃ³n)&lt;/font&gt;" style="shape=partialRectangle;html=1;whiteSpace=wrap;connectable=0;strokeColor=inherit;overflow=hidden;fillColor=none;top=0;left=0;bottom=0;right=0;pointerEvents=1;" parent="CyJpZy0ku7KnmYNyaIBQ-35" vertex="1">
          <mxGeometry x="236" width="118" height="130" as="geometry">
            <mxRectangle width="118" height="130" as="alternateBounds" />
          </mxGeometry>
        </mxCell>
        <mxCell id="CyJpZy0ku7KnmYNyaIBQ-39" value="Es llamado por el usuario para poder ver las transacciones que se realizaron sobre el deposito" style="shape=partialRectangle;html=1;whiteSpace=wrap;connectable=0;strokeColor=inherit;overflow=hidden;fillColor=none;top=0;left=0;bottom=0;right=0;pointerEvents=1;" parent="CyJpZy0ku7KnmYNyaIBQ-35" vertex="1">
          <mxGeometry x="354" width="118" height="130" as="geometry">
            <mxRectangle width="118" height="130" as="alternateBounds" />
          </mxGeometry>
        </mxCell>
        <mxCell id="CyJpZy0ku7KnmYNyaIBQ-40" value="Es llamado cuando se hace un ingreso para mostrar las ubicaciones donde es posible colocar el nuevo palet" style="shape=partialRectangle;html=1;whiteSpace=wrap;connectable=0;strokeColor=inherit;overflow=hidden;fillColor=none;top=0;left=0;bottom=0;right=0;pointerEvents=1;" parent="CyJpZy0ku7KnmYNyaIBQ-35" vertex="1">
          <mxGeometry x="472" width="118" height="130" as="geometry">
            <mxRectangle width="118" height="130" as="alternateBounds" />
          </mxGeometry>
        </mxCell>
        <mxCell id="CyJpZy0ku7KnmYNyaIBQ-41" value="Es llamado por el usuario para ver la lista de palets ocupados junto a su ubicacion. Utilizado tambien en el egreso de mercaderia para ver la disponibilidad" style="shape=partialRectangle;html=1;whiteSpace=wrap;connectable=0;strokeColor=inherit;overflow=hidden;fillColor=none;top=0;left=0;bottom=0;right=0;pointerEvents=1;" parent="CyJpZy0ku7KnmYNyaIBQ-35" vertex="1">
          <mxGeometry x="590" width="118" height="130" as="geometry">
            <mxRectangle width="118" height="130" as="alternateBounds" />
          </mxGeometry>
        </mxCell>
        <mxCell id="CyJpZy0ku7KnmYNyaIBQ-43" style="shape=tableRow;horizontal=0;startSize=0;swimlaneHead=0;swimlaneBody=0;strokeColor=inherit;top=0;left=0;bottom=0;right=0;collapsible=0;dropTarget=0;fillColor=none;points=[[0,0.5],[1,0.5]];portConstraint=eastwest;" parent="CyJpZy0ku7KnmYNyaIBQ-2" vertex="1">
          <mxGeometry y="645" width="708" height="195" as="geometry" />
        </mxCell>
        <mxCell id="CyJpZy0ku7KnmYNyaIBQ-44" value="flujo principal" style="shape=partialRectangle;html=1;whiteSpace=wrap;connectable=0;strokeColor=inherit;overflow=hidden;fillColor=none;top=0;left=0;bottom=0;right=0;pointerEvents=1;" parent="CyJpZy0ku7KnmYNyaIBQ-43" vertex="1">
          <mxGeometry width="118" height="195" as="geometry">
            <mxRectangle width="118" height="195" as="alternateBounds" />
          </mxGeometry>
        </mxCell>
        <mxCell id="CyJpZy0ku7KnmYNyaIBQ-45" value="Se le pide al usuario contraseÃ±a y nombre y valida si en la base de datos ya existe el usuario ya creado para que acceda al menu de opciones" style="shape=partialRectangle;html=1;whiteSpace=wrap;connectable=0;strokeColor=inherit;overflow=hidden;fillColor=none;top=0;left=0;bottom=0;right=0;pointerEvents=1;" parent="CyJpZy0ku7KnmYNyaIBQ-43" vertex="1">
          <mxGeometry x="118" width="118" height="195" as="geometry">
            <mxRectangle width="118" height="195" as="alternateBounds" />
          </mxGeometry>
        </mxCell>
        <mxCell id="CyJpZy0ku7KnmYNyaIBQ-46" value="&lt;font style=&quot;font-size: 10px;&quot;&gt;Cuando el usuario selecciona esta opcion elije entre hacer un ingreso o un egreso de datos. En ambos casos se solicitara datos del conductor y su vehiculo. Si es un egreso se pedira la ubicacion de los palets a retirar y si es un ingreso se pediran los datos de la mercaderia ingresante&lt;/font&gt;" style="shape=partialRectangle;html=1;whiteSpace=wrap;connectable=0;strokeColor=inherit;overflow=hidden;fillColor=none;top=0;left=0;bottom=0;right=0;pointerEvents=1;" parent="CyJpZy0ku7KnmYNyaIBQ-43" vertex="1">
          <mxGeometry x="236" width="118" height="195" as="geometry">
            <mxRectangle width="118" height="195" as="alternateBounds" />
          </mxGeometry>
        </mxCell>
        <mxCell id="CyJpZy0ku7KnmYNyaIBQ-47" value="Se mostrara las lista de todas las transacciones, mostrando el tipo de transaccion, cuando fue hecha, que mercaderia, de donde, hacia donde, conductor y su vehiculo." style="shape=partialRectangle;html=1;whiteSpace=wrap;connectable=0;strokeColor=inherit;overflow=hidden;fillColor=none;top=0;left=0;bottom=0;right=0;pointerEvents=1;" parent="CyJpZy0ku7KnmYNyaIBQ-43" vertex="1">
          <mxGeometry x="354" width="118" height="195" as="geometry">
            <mxRectangle width="118" height="195" as="alternateBounds" />
          </mxGeometry>
        </mxCell>
        <mxCell id="CyJpZy0ku7KnmYNyaIBQ-48" value="El sistema mostrara la lista de todas las unidad es de almacenamiento que se encuentren libres para ser llenadas." style="shape=partialRectangle;html=1;whiteSpace=wrap;connectable=0;strokeColor=inherit;overflow=hidden;fillColor=none;top=0;left=0;bottom=0;right=0;pointerEvents=1;" parent="CyJpZy0ku7KnmYNyaIBQ-43" vertex="1">
          <mxGeometry x="472" width="118" height="195" as="geometry">
            <mxRectangle width="118" height="195" as="alternateBounds" />
          </mxGeometry>
        </mxCell>
        <mxCell id="CyJpZy0ku7KnmYNyaIBQ-49" value="Al llamar a esta opcion se mostrara la lista de todos los palets ocupados indicando su ubicacion y los datos de la mercaderia contenida en cada uno de estos" style="shape=partialRectangle;html=1;whiteSpace=wrap;connectable=0;strokeColor=inherit;overflow=hidden;fillColor=none;top=0;left=0;bottom=0;right=0;pointerEvents=1;" parent="CyJpZy0ku7KnmYNyaIBQ-43" vertex="1">
          <mxGeometry x="590" width="118" height="195" as="geometry">
            <mxRectangle width="118" height="195" as="alternateBounds" />
          </mxGeometry>
        </mxCell>
        <mxCell id="CyJpZy0ku7KnmYNyaIBQ-51" style="shape=tableRow;horizontal=0;startSize=0;swimlaneHead=0;swimlaneBody=0;strokeColor=inherit;top=0;left=0;bottom=0;right=0;collapsible=0;dropTarget=0;fillColor=none;points=[[0,0.5],[1,0.5]];portConstraint=eastwest;" parent="CyJpZy0ku7KnmYNyaIBQ-2" vertex="1">
          <mxGeometry y="840" width="708" height="128" as="geometry" />
        </mxCell>
        <mxCell id="CyJpZy0ku7KnmYNyaIBQ-52" value="subflujo" style="shape=partialRectangle;html=1;whiteSpace=wrap;connectable=0;strokeColor=inherit;overflow=hidden;fillColor=none;top=0;left=0;bottom=0;right=0;pointerEvents=1;" parent="CyJpZy0ku7KnmYNyaIBQ-51" vertex="1">
          <mxGeometry width="118" height="128" as="geometry">
            <mxRectangle width="118" height="128" as="alternateBounds" />
          </mxGeometry>
        </mxCell>
        <mxCell id="CyJpZy0ku7KnmYNyaIBQ-53" value="-" style="shape=partialRectangle;html=1;whiteSpace=wrap;connectable=0;strokeColor=inherit;overflow=hidden;fillColor=none;top=0;left=0;bottom=0;right=0;pointerEvents=1;" parent="CyJpZy0ku7KnmYNyaIBQ-51" vertex="1">
          <mxGeometry x="118" width="118" height="128" as="geometry">
            <mxRectangle width="118" height="128" as="alternateBounds" />
          </mxGeometry>
        </mxCell>
        <mxCell id="CyJpZy0ku7KnmYNyaIBQ-54" value="-" style="shape=partialRectangle;html=1;whiteSpace=wrap;connectable=0;strokeColor=inherit;overflow=hidden;fillColor=none;top=0;left=0;bottom=0;right=0;pointerEvents=1;" parent="CyJpZy0ku7KnmYNyaIBQ-51" vertex="1">
          <mxGeometry x="236" width="118" height="128" as="geometry">
            <mxRectangle width="118" height="128" as="alternateBounds" />
          </mxGeometry>
        </mxCell>
        <mxCell id="CyJpZy0ku7KnmYNyaIBQ-55" value="Si se selecciona la opciÃ³n de franja de tiempo se deberan ingresar dos fechas y el sistema mostrara las transacciones que ocurrieron entre esas fechas." style="shape=partialRectangle;html=1;whiteSpace=wrap;connectable=0;strokeColor=inherit;overflow=hidden;fillColor=none;top=0;left=0;bottom=0;right=0;pointerEvents=1;" parent="CyJpZy0ku7KnmYNyaIBQ-51" vertex="1">
          <mxGeometry x="354" width="118" height="128" as="geometry">
            <mxRectangle width="118" height="128" as="alternateBounds" />
          </mxGeometry>
        </mxCell>
        <mxCell id="CyJpZy0ku7KnmYNyaIBQ-56" value="-" style="shape=partialRectangle;html=1;whiteSpace=wrap;connectable=0;strokeColor=inherit;overflow=hidden;fillColor=none;top=0;left=0;bottom=0;right=0;pointerEvents=1;" parent="CyJpZy0ku7KnmYNyaIBQ-51" vertex="1">
          <mxGeometry x="472" width="118" height="128" as="geometry">
            <mxRectangle width="118" height="128" as="alternateBounds" />
          </mxGeometry>
        </mxCell>
        <mxCell id="CyJpZy0ku7KnmYNyaIBQ-57" value="-" style="shape=partialRectangle;html=1;whiteSpace=wrap;connectable=0;strokeColor=inherit;overflow=hidden;fillColor=none;top=0;left=0;bottom=0;right=0;pointerEvents=1;" parent="CyJpZy0ku7KnmYNyaIBQ-51" vertex="1">
          <mxGeometry x="590" width="118" height="128" as="geometry">
            <mxRectangle width="118" height="128" as="alternateBounds" />
          </mxGeometry>
        </mxCell>
        <mxCell id="CyJpZy0ku7KnmYNyaIBQ-59" style="shape=tableRow;horizontal=0;startSize=0;swimlaneHead=0;swimlaneBody=0;strokeColor=inherit;top=0;left=0;bottom=0;right=0;collapsible=0;dropTarget=0;fillColor=none;points=[[0,0.5],[1,0.5]];portConstraint=eastwest;" parent="CyJpZy0ku7KnmYNyaIBQ-2" vertex="1">
          <mxGeometry y="968" width="708" height="202" as="geometry" />
        </mxCell>
        <mxCell id="CyJpZy0ku7KnmYNyaIBQ-60" value="excepciones" style="shape=partialRectangle;html=1;whiteSpace=wrap;connectable=0;strokeColor=inherit;overflow=hidden;fillColor=none;top=0;left=0;bottom=0;right=0;pointerEvents=1;" parent="CyJpZy0ku7KnmYNyaIBQ-59" vertex="1">
          <mxGeometry width="118" height="202" as="geometry">
            <mxRectangle width="118" height="202" as="alternateBounds" />
          </mxGeometry>
        </mxCell>
        <mxCell id="CyJpZy0ku7KnmYNyaIBQ-61" value="Si el usuario ingresado no existe se impedirÃ¡ el acceso a la sistema y se pide devuelta los datos&amp;nbsp;" style="shape=partialRectangle;html=1;whiteSpace=wrap;connectable=0;strokeColor=inherit;overflow=hidden;fillColor=none;top=0;left=0;bottom=0;right=0;pointerEvents=1;" parent="CyJpZy0ku7KnmYNyaIBQ-59" vertex="1">
          <mxGeometry x="118" width="118" height="202" as="geometry">
            <mxRectangle width="118" height="202" as="alternateBounds" />
          </mxGeometry>
        </mxCell>
        <mxCell id="CyJpZy0ku7KnmYNyaIBQ-62" value="Si falta algun valor de los necesarios para la insercion del nuevo producto emergera un mensaje de error y se volvera al menu de opciones. O si no hay espacio para retirar o ingresar los productos sucedera lo mismo" style="shape=partialRectangle;html=1;whiteSpace=wrap;connectable=0;strokeColor=inherit;overflow=hidden;fillColor=none;top=0;left=0;bottom=0;right=0;pointerEvents=1;" parent="CyJpZy0ku7KnmYNyaIBQ-59" vertex="1">
          <mxGeometry x="236" width="118" height="202" as="geometry">
            <mxRectangle width="118" height="202" as="alternateBounds" />
          </mxGeometry>
        </mxCell>
        <mxCell id="CyJpZy0ku7KnmYNyaIBQ-63" value="si no hay ninguna transaccion no se mostrara nada." style="shape=partialRectangle;html=1;whiteSpace=wrap;connectable=0;strokeColor=inherit;overflow=hidden;fillColor=none;top=0;left=0;bottom=0;right=0;pointerEvents=1;" parent="CyJpZy0ku7KnmYNyaIBQ-59" vertex="1">
          <mxGeometry x="354" width="118" height="202" as="geometry">
            <mxRectangle width="118" height="202" as="alternateBounds" />
          </mxGeometry>
        </mxCell>
        <mxCell id="CyJpZy0ku7KnmYNyaIBQ-64" value="Si no hay ningun espacio vacio saldra un mensaje de aviso y se volvera al menu de opciones" style="shape=partialRectangle;html=1;whiteSpace=wrap;connectable=0;strokeColor=inherit;overflow=hidden;fillColor=none;top=0;left=0;bottom=0;right=0;pointerEvents=1;" parent="CyJpZy0ku7KnmYNyaIBQ-59" vertex="1">
          <mxGeometry x="472" width="118" height="202" as="geometry">
            <mxRectangle width="118" height="202" as="alternateBounds" />
          </mxGeometry>
        </mxCell>
        <mxCell id="CyJpZy0ku7KnmYNyaIBQ-65" value="Si no hay ningun palet ocupado saldra un mensaje de aviso que el stock se encuentra vacio y se volvera al menu de opciones" style="shape=partialRectangle;html=1;whiteSpace=wrap;connectable=0;strokeColor=inherit;overflow=hidden;fillColor=none;top=0;left=0;bottom=0;right=0;pointerEvents=1;" parent="CyJpZy0ku7KnmYNyaIBQ-59" vertex="1">
          <mxGeometry x="590" width="118" height="202" as="geometry">
            <mxRectangle width="118" height="202" as="alternateBounds" />
          </mxGeometry>
        </mxCell>
        <mxCell id="CyJpZy0ku7KnmYNyaIBQ-122" value="" style="rounded=0;whiteSpace=wrap;html=1;" parent="1" vertex="1">
          <mxGeometry x="10" y="20.6" width="330" height="150" as="geometry" />
        </mxCell>
        <mxCell id="CyJpZy0ku7KnmYNyaIBQ-123" value="" style="endArrow=none;html=1;rounded=0;entryX=0.289;entryY=-0.004;entryDx=0;entryDy=0;exitX=0.29;exitY=0.999;exitDx=0;exitDy=0;entryPerimeter=0;exitPerimeter=0;" parent="1" source="CyJpZy0ku7KnmYNyaIBQ-122" target="CyJpZy0ku7KnmYNyaIBQ-122" edge="1">
          <mxGeometry width="50" height="50" relative="1" as="geometry">
            <mxPoint x="320" y="190.6" as="sourcePoint" />
            <mxPoint x="180" y="10.6" as="targetPoint" />
          </mxGeometry>
        </mxCell>
        <mxCell id="CyJpZy0ku7KnmYNyaIBQ-124" value="" style="endArrow=none;html=1;rounded=0;entryX=1.003;entryY=0.18;entryDx=0;entryDy=0;entryPerimeter=0;exitX=-0.001;exitY=0.178;exitDx=0;exitDy=0;exitPerimeter=0;" parent="1" source="CyJpZy0ku7KnmYNyaIBQ-122" target="CyJpZy0ku7KnmYNyaIBQ-122" edge="1">
          <mxGeometry width="50" height="50" relative="1" as="geometry">
            <mxPoint x="320" y="190.6" as="sourcePoint" />
            <mxPoint x="370" y="140.6" as="targetPoint" />
          </mxGeometry>
        </mxCell>
        <mxCell id="CyJpZy0ku7KnmYNyaIBQ-125" value="Actor" style="text;html=1;align=center;verticalAlign=middle;resizable=0;points=[];autosize=1;strokeColor=none;fillColor=none;" parent="1" vertex="1">
          <mxGeometry x="30" y="20.6" width="50" height="30" as="geometry" />
        </mxCell>
        <mxCell id="CyJpZy0ku7KnmYNyaIBQ-126" value="caso de uso" style="text;html=1;align=center;verticalAlign=middle;resizable=0;points=[];autosize=1;strokeColor=none;fillColor=none;" parent="1" vertex="1">
          <mxGeometry x="10" y="50.599999999999994" width="90" height="30" as="geometry" />
        </mxCell>
        <mxCell id="CyJpZy0ku7KnmYNyaIBQ-127" value="tipo" style="text;html=1;align=center;verticalAlign=middle;resizable=0;points=[];autosize=1;strokeColor=none;fillColor=none;" parent="1" vertex="1">
          <mxGeometry x="35" y="90.6" width="40" height="30" as="geometry" />
        </mxCell>
        <mxCell id="CyJpZy0ku7KnmYNyaIBQ-128" value="descripciÃ³n" style="text;html=1;align=center;verticalAlign=middle;resizable=0;points=[];autosize=1;strokeColor=none;fillColor=none;" parent="1" vertex="1">
          <mxGeometry x="15" y="130.6" width="80" height="30" as="geometry" />
        </mxCell>
        <mxCell id="CyJpZy0ku7KnmYNyaIBQ-129" value="" style="endArrow=none;html=1;rounded=0;entryX=0.002;entryY=0.434;entryDx=0;entryDy=0;entryPerimeter=0;exitX=1.003;exitY=0.447;exitDx=0;exitDy=0;exitPerimeter=0;" parent="1" source="CyJpZy0ku7KnmYNyaIBQ-122" target="CyJpZy0ku7KnmYNyaIBQ-122" edge="1">
          <mxGeometry width="50" height="50" relative="1" as="geometry">
            <mxPoint x="119.99999999999999" y="120.6" as="sourcePoint" />
            <mxPoint x="170" y="70.6" as="targetPoint" />
          </mxGeometry>
        </mxCell>
        <mxCell id="CyJpZy0ku7KnmYNyaIBQ-130" value="" style="endArrow=none;html=1;rounded=0;exitX=0;exitY=0.697;exitDx=0;exitDy=0;exitPerimeter=0;entryX=0.999;entryY=0.717;entryDx=0;entryDy=0;entryPerimeter=0;" parent="1" source="CyJpZy0ku7KnmYNyaIBQ-122" target="CyJpZy0ku7KnmYNyaIBQ-122" edge="1">
          <mxGeometry width="50" height="50" relative="1" as="geometry">
            <mxPoint x="200" y="120.6" as="sourcePoint" />
            <mxPoint x="250" y="70.6" as="targetPoint" />
          </mxGeometry>
        </mxCell>
        <mxCell id="CyJpZy0ku7KnmYNyaIBQ-133" value="Primario" style="text;html=1;align=center;verticalAlign=middle;resizable=0;points=[];autosize=1;strokeColor=none;fillColor=none;" parent="1" vertex="1">
          <mxGeometry x="109.99999999999999" y="90.6" width="70" height="30" as="geometry" />
        </mxCell>
        <mxCell id="CyJpZy0ku7KnmYNyaIBQ-135" value="" style="rounded=0;whiteSpace=wrap;html=1;" parent="1" vertex="1">
          <mxGeometry x="340.25" y="20.6" width="248.98" height="150" as="geometry" />
        </mxCell>
        <mxCell id="CyJpZy0ku7KnmYNyaIBQ-136" value="" style="endArrow=none;html=1;rounded=0;entryX=1.003;entryY=0.18;entryDx=0;entryDy=0;entryPerimeter=0;exitX=-0.001;exitY=0.178;exitDx=0;exitDy=0;exitPerimeter=0;" parent="1" source="CyJpZy0ku7KnmYNyaIBQ-135" target="CyJpZy0ku7KnmYNyaIBQ-135" edge="1">
          <mxGeometry width="50" height="50" relative="1" as="geometry">
            <mxPoint x="559.23" y="190.60000000000002" as="sourcePoint" />
            <mxPoint x="609.23" y="140.60000000000002" as="targetPoint" />
          </mxGeometry>
        </mxCell>
        <mxCell id="CyJpZy0ku7KnmYNyaIBQ-150" value="DB" style="edgeLabel;html=1;align=center;verticalAlign=middle;resizable=0;points=[];" parent="CyJpZy0ku7KnmYNyaIBQ-136" vertex="1" connectable="0">
          <mxGeometry x="-0.2573" y="3" relative="1" as="geometry">
            <mxPoint x="32" y="-9" as="offset" />
          </mxGeometry>
        </mxCell>
        <mxCell id="CyJpZy0ku7KnmYNyaIBQ-137" value="" style="endArrow=none;html=1;rounded=0;entryX=0.004;entryY=0.449;entryDx=0;entryDy=0;entryPerimeter=0;exitX=1.003;exitY=0.447;exitDx=0;exitDy=0;exitPerimeter=0;" parent="1" source="CyJpZy0ku7KnmYNyaIBQ-135" target="CyJpZy0ku7KnmYNyaIBQ-135" edge="1">
          <mxGeometry width="50" height="50" relative="1" as="geometry">
            <mxPoint x="359.23" y="120.60000000000002" as="sourcePoint" />
            <mxPoint x="409.23" y="70.60000000000002" as="targetPoint" />
          </mxGeometry>
        </mxCell>
        <mxCell id="CyJpZy0ku7KnmYNyaIBQ-138" value="" style="endArrow=none;html=1;rounded=0;exitX=0.999;exitY=0.058;exitDx=0;exitDy=0;exitPerimeter=0;entryX=0.999;entryY=0.717;entryDx=0;entryDy=0;entryPerimeter=0;" parent="1" target="CyJpZy0ku7KnmYNyaIBQ-135" edge="1">
          <mxGeometry width="50" height="50" relative="1" as="geometry">
            <mxPoint x="339.77" y="127.92000000000007" as="sourcePoint" />
            <mxPoint x="489.2300000000001" y="70.60000000000002" as="targetPoint" />
          </mxGeometry>
        </mxCell>
        <mxCell id="CyJpZy0ku7KnmYNyaIBQ-141" value="Primario" style="text;html=1;align=center;verticalAlign=middle;resizable=0;points=[];autosize=1;strokeColor=none;fillColor=none;" parent="1" vertex="1">
          <mxGeometry x="349.23" y="90.60000000000002" width="70" height="30" as="geometry" />
        </mxCell>
        <mxCell id="CyJpZy0ku7KnmYNyaIBQ-149" value="Se encarga de almacenar todo lo necesario del&lt;br&gt;&amp;nbsp;sistema y permitir los accesos a estos datos" style="text;html=1;align=left;verticalAlign=middle;resizable=0;points=[];autosize=1;strokeColor=none;fillColor=none;fontSize=10;" parent="1" vertex="1">
          <mxGeometry x="349.74" y="130.59999999999997" width="230" height="40" as="geometry" />
        </mxCell>
        <mxCell id="CyJpZy0ku7KnmYNyaIBQ-151" value="Usuario" style="text;html=1;strokeColor=none;fillColor=none;align=center;verticalAlign=middle;whiteSpace=wrap;rounded=0;" parent="1" vertex="1">
          <mxGeometry x="180" y="20.6" width="60" height="30" as="geometry" />
        </mxCell>
        <mxCell id="CyJpZy0ku7KnmYNyaIBQ-152" value="Es el actor que interactÃºa y utiliza el sistema para hacer gestiÃ³n del deposito y poder ver los datos correspondientes" style="text;html=1;strokeColor=none;fillColor=none;align=center;verticalAlign=middle;whiteSpace=wrap;rounded=0;" parent="1" vertex="1">
          <mxGeometry x="110" y="130.6" width="230" height="40" as="geometry" />
        </mxCell>
        <mxCell id="CyJpZy0ku7KnmYNyaIBQ-153" value="Login, control de deposito, generar reporte, ver espacios vacios, ver stock" style="text;html=1;strokeColor=none;fillColor=none;align=center;verticalAlign=middle;whiteSpace=wrap;rounded=0;" parent="1" vertex="1">
          <mxGeometry x="120" y="50.599999999999994" width="200" height="30" as="geometry" />
        </mxCell>
        <mxCell id="CyJpZy0ku7KnmYNyaIBQ-154" value="Login, control de deposito, generar reporte, ver espacios vacios, ver stock" style="text;html=1;strokeColor=none;fillColor=none;align=center;verticalAlign=middle;whiteSpace=wrap;rounded=0;" parent="1" vertex="1">
          <mxGeometry x="364.74" y="50.599999999999994" width="200" height="30" as="geometry" />
        </mxCell>
      </root>
    </mxGraphModel>
  </diagram>
</mxfile>
